<svg xmlns="http://www.w3.org/2000/svg" viewBox="0 0 100 100">
  <defs>
    <linearGradient id="top" x1="0%" y1="0%" x2="100%" y2="100%"><stop offset="0%" stop-color="#b0b8c8"/><stop offset="100%" stop-color="#5a6070"/></linearGradient>
    <linearGradient id="rt" x1="0%" y1="0%" x2="100%" y2="0%"><stop offset="0%" stop-color="#3a4050"/><stop offset="100%" stop-color="#1e2230"/></linearGradient>
    <linearGradient id="lt" x1="0%" y1="0%" x2="100%" y2="0%"><stop offset="0%" stop-color="#505868"/><stop offset="100%" stop-color="#3a4050"/></linearGradient>
    <filter id="g"><feGaussianBlur stdDeviation="1.5" result="b"/><feMerge><feMergeNode in="b"/><feMergeNode in="SourceGraphic"/></feMerge></filter>
  </defs>
  <polygon points="50,12 84,30 50,48 16,30" fill="url(#top)"/>
  <polygon points="84,30 84,70 50,88 50,48" fill="url(#rt)"/>
  <polygon points="16,30 50,48 50,88 16,70" fill="url(#lt)"/>
  <line x1="50" y1="12" x2="84" y2="30" stroke="#d0d8e8" stroke-width="1.5" opacity=".5"/>
  <line x1="50" y1="12" x2="16" y2="30" stroke="#d0d8e8" stroke-width="1.2" opacity=".35"/>
  <line x1="50" y1="48" x2="50" y2="12" stroke="#a0a8b8" stroke-width="1" opacity=".3"/>
  <circle cx="50" cy="27" r="4" fill="#ffd700" filter="url(#g)"/>
  <circle cx="39" cy="35" r="2.8" fill="#ffd700" opacity=".85"/>
  <circle cx="61" cy="35" r="2.8" fill="#ffd700" opacity=".85"/>
  <circle cx="39" cy="41" r="2.8" fill="#ffd700" opacity=".85"/>
  <circle cx="61" cy="41" r="2.8" fill="#ffd700" opacity=".85"/>
  <polygon points="50,12 84,30 50,48 16,30" fill="none" stroke="rgba(255,255,255,0.2)" stroke-width="1"/>
  <polygon points="84,30 84,70 50,88 50,48" fill="none" stroke="rgba(255,255,255,0.08)" stroke-width="1"/>
</svg>
